<!DOCTYPE svg PUBLIC "-//W3C//DTD SVG 1.1//EN" "http://www.w3.org/Graphics/SVG/1.1/DTD/svg11.dtd">

<!-- Uploaded to: SVG Repo, www.svgrepo.com, Transformed by: SVG Repo Mixer Tools -->
<svg width="800px" height="800px" viewBox="0 0 48 48" fill="none" xmlns="http://www.w3.org/2000/svg">

<g id="SVGRepo_bgCarrier" stroke-width="0"/>

<g id="SVGRepo_tracerCarrier" stroke-linecap="round" stroke-linejoin="round"/>

<g id="SVGRepo_iconCarrier"> <rect width="48" height="48" fill="#000000" fill-opacity="0.01"/> <path d="M38 21L43 30L38 31V37H35L29 36L28 43H13L11 32.619C7.92077 29.7028 6 25.5757 6 21C6 12.1634 13.1634 5 22 5C30.8366 5 38 12.1634 38 21Z" fill="" stroke="#000000" stroke-width="4" stroke-linecap="round" stroke-linejoin="round"/> <path d="M17 19C17 16.2386 19.2386 14 22 14C24.7614 14 27 16.2386 27 19C27 21.7614 24.7614 24 22 24V27" stroke="#000000" stroke-width="4" stroke-linecap="round" stroke-linejoin="round"/> <path d="M22 33V34" stroke="#000000" stroke-width="4" stroke-linecap="round" stroke-linejoin="round"/> </g>

</svg>